<svg id="Layer_1" data-name="Layer 1" width="68" height="68" xmlns="http://www.w3.org/2000/svg" viewBox="0 0 800 800"><defs><style>.cls-1{fill:none;}.cls-2{fill:#fff;}.cls-3{fill:#abcbeb;}.cls-4{fill:#6a7695;}</style></defs><title>Activities Management-Advance</title><rect class="cls-1" width="800" height="800"/><circle class="cls-2" cx="397.72" cy="401.49" r="300.28"/><path class="cls-3" d="M465.75,149.49c19.53,3.45,37.47,11.42,54.71,20.64,52.16,27.86,90.69,68.93,115.6,122.54a244.09,244.09,0,0,1,21.39,78.13c4.1,39.32.37,77.62-12.74,114.94a255.6,255.6,0,0,1-46.44,81.14c-38.47,45.38-86.84,74.79-145,87-63.59,13.31-124,3.72-180.8-28a241.86,241.86,0,0,1-32.69-21.5c1.17-1.57,2.66-1.31,4.2-.72,32.63,12.33,66.31,19.21,101.16,21.74,48.35,3.5,95.29-2.33,138.08-25.23,62.4-33.39,104.39-83.93,118.53-154.84,7.54-37.82,2.63-75-6.21-112.14-15-63.27-48.92-114.61-96.78-157.43C488.26,166.41,476.77,158.22,465.75,149.49Z"/><path class="cls-4" d="M161.29,60.12C178,67.75,186.44,80.67,186.47,99c0,10.65,0,21.3,0,33.42,6.3-4.49,11.48-8.21,16.68-11.89q75-53,166.51-60.83c97.23-8.22,182.48,20.33,256.06,84.06,43.56,37.74,75,84.13,94.8,138,15.84,43.07,23.86,87.92,20.84,133.81-6.54,99.72-46.85,183.12-124.06,247.6-49.78,41.58-106.94,67-171.36,75-100.73,12.56-190.56-13.11-268.24-78.9C127.18,616.6,92.52,563.1,73,499.83A324.34,324.34,0,0,1,60.7,440.1c-1.58-6.27-1.28-12.81-2.7-19.11-.08-7,.51-14.18-.38-21.12-1.72-13.46,13.48-34.29,28-38.8,16.68-5.19,34.38-.61,45.2,12.81a38.68,38.68,0,0,1,9.08,24.42c.88,61.24,19.43,116.29,57.84,164.31a276.47,276.47,0,0,0,42,41.77c4.74.32,8,3.59,11.58,6.06a258.86,258.86,0,0,0,115.09,44.8c46.15,6.23,90.53-.48,133.52-18.17a245.16,245.16,0,0,0,79.24-52.54c41.09-40.49,67.43-89.39,75.23-146.7,9-66.14-4-127.82-42.59-183.4q-50-72.1-133.06-99.66c-4.46-1.49-8.6-3.68-13-5.28-25.45-8.25-51.74-10.3-78.18-9a256.16,256.16,0,0,0-121,36.61,237.71,237.71,0,0,0-26.93,18.75c3.8,1.94,7.15,1.12,10.32,1.17,13.06.22,26.19-.49,39.18.61,22.36,1.9,38.68,20.34,37.87,41.43-.88,22.94-18.22,39.85-41.76,40.16-21.17.28-42.35.05-63.53.05-36.08,0-72.16-.13-108.24.15-6.64.06-9-1.45-8.91-8.64q.47-85.09.11-170.21c0-19,8-32.52,25.24-40.53,2.19-.85,4.4-1.67,6.5-2.73l17-.09A55.76,55.76,0,0,1,161.29,60.12ZM344.65,431.56c0,5.6,1.67,8.93,6.41,12.07,41.38,27.44,82.56,55.19,123.83,82.79,20.42,13.66,45.14,9,58.53-11,12.48-18.59,6.85-43.52-13.07-56.93q-43.25-29.13-86.71-57.91c-5.07-3.34-7.17-6.94-7.13-13.25.3-48.65.12-97.29.2-145.94,0-9.76-2.52-18.67-8.39-26.38-10.95-14.37-28.87-19.88-45.47-14.35a40.5,40.5,0,0,0-28,38.63c-.24,32.17-.07,64.34-.08,96.51C344.77,367.74,344.9,399.65,344.65,431.56Z"/></svg>
